<?xml version="1.0"?>
<svg xmlns="http://www.w3.org/2000/svg" version="1" viewBox="0 0 24 24" enable-background="new 0 0 24 24">
    <path d="M6,21V3h5.9c2.1,0,3.8,0.4,5,1.2s1.8,2.1,1.8,3.7c0,0.8-0.2,1.6-0.6,2.2c-0.4,0.7-1.1,1.1-1.9,1.5c1.1,0.2,2,0.7,2.5,1.5 c0.6,0.8,0.9,1.7,0.9,2.7c0,1.7-0.6,3-1.7,3.9C16.7,20.6,15,21,13,21H6z M9.6,10.5H12c1,0,1.7-0.2,2.2-0.6C14.8,9.6,15,9,15,8.2 c0-0.8-0.3-1.4-0.8-1.8s-1.3-0.6-2.3-0.6H9.6V10.5z M9.6,13v5.2H13c1,0,1.7-0.2,2.2-0.6c0.5-0.4,0.8-1,0.8-1.8c0-0.9-0.2-1.5-0.7-2 c-0.5-0.5-1.2-0.7-2.2-0.7H9.6z"/>
</svg>
